<svg width="28" height="36" viewBox="0 0 28 36" fill="none" xmlns="http://www.w3.org/2000/svg">
<path d="M27.3828 9.27344L18.9766 0.867188C18.7422 0.632813 18.4258 0.5 18.0937 0.5H1.5C0.808594 0.5 0.25 1.05859 0.25 1.75V34.25C0.25 34.9414 0.808594 35.5 1.5 35.5H26.5C27.1914 35.5 27.75 34.9414 27.75 34.25V10.1602C27.75 9.82812 27.6172 9.50781 27.3828 9.27344ZM24.8672 10.7344H17.5156V3.38281L24.8672 10.7344ZM24.9375 32.6875H3.0625V3.3125H14.8594V11.75C14.8594 12.1851 15.0322 12.6024 15.3399 12.9101C15.6476 13.2178 16.0649 13.3906 16.5 13.3906H24.9375V32.6875ZM15.25 16.4375C15.25 16.2656 15.1094 16.125 14.9375 16.125H13.0625C12.8906 16.125 12.75 16.2656 12.75 16.4375V20.6562H8.53125C8.35937 20.6562 8.21875 20.7969 8.21875 20.9688V22.8438C8.21875 23.0156 8.35937 23.1562 8.53125 23.1562H12.75V27.375C12.75 27.5469 12.8906 27.6875 13.0625 27.6875H14.9375C15.1094 27.6875 15.25 27.5469 15.25 27.375V23.1562H19.4688C19.6406 23.1562 19.7812 23.0156 19.7812 22.8438V20.9688C19.7812 20.7969 19.6406 20.6562 19.4688 20.6562H15.25V16.4375Z" fill="current"/>
</svg>
