<svg width="40" height="40" viewBox="0 0 40 40" fill="none" xmlns="http://www.w3.org/2000/svg">
    <path d="M36.0508 27.418H12.7891L13.957 25.0391L33.3633 25.0039C34.0195 25.0039 34.582 24.5352 34.6992 23.8867L37.3867 8.84375C37.457 8.44922 37.3516 8.04297 37.0937 7.73438C36.9663 7.5825 36.8074 7.46016 36.628 7.37585C36.4485 7.29153 36.2529 7.24726 36.0547 7.24609L11.3672 7.16406L11.1563 6.17188C11.0234 5.53906 10.4531 5.07812 9.80469 5.07812H3.76953C3.40382 5.07813 3.05309 5.2234 2.7945 5.482C2.5359 5.74059 2.39063 6.09132 2.39062 6.45703C2.39063 6.82274 2.5359 7.17347 2.7945 7.43207C3.05309 7.69066 3.40382 7.83594 3.76953 7.83594H8.6875L9.60938 12.2187L11.8789 23.207L8.95703 27.9766C8.80529 28.1814 8.7139 28.4245 8.69319 28.6786C8.67248 28.9326 8.72328 29.1874 8.83984 29.4141C9.07422 29.8789 9.54687 30.1719 10.0703 30.1719H12.5234C12.0005 30.8665 11.718 31.7126 11.7188 32.582C11.7188 34.793 13.5156 36.5898 15.7266 36.5898C17.9375 36.5898 19.7344 34.793 19.7344 32.582C19.7344 31.7109 19.4453 30.8633 18.9297 30.1719H25.2227C24.6997 30.8665 24.4172 31.7126 24.418 32.582C24.418 34.793 26.2148 36.5898 28.4258 36.5898C30.6367 36.5898 32.4336 34.793 32.4336 32.582C32.4336 31.7109 32.1445 30.8633 31.6289 30.1719H36.0547C36.8125 30.1719 37.4336 29.5547 37.4336 28.793C37.4313 28.4276 37.2847 28.078 37.0256 27.8204C36.7665 27.5629 36.4161 27.4182 36.0508 27.418V27.418ZM11.9414 9.88281L34.4336 9.95703L32.2305 22.293L14.5625 22.3242L11.9414 9.88281ZM15.7266 33.8164C15.0469 33.8164 14.4922 33.2617 14.4922 32.582C14.4922 31.9023 15.0469 31.3477 15.7266 31.3477C16.4062 31.3477 16.9609 31.9023 16.9609 32.582C16.9609 32.9094 16.8309 33.2234 16.5994 33.4549C16.3679 33.6864 16.0539 33.8164 15.7266 33.8164V33.8164ZM28.4258 33.8164C27.7461 33.8164 27.1914 33.2617 27.1914 32.582C27.1914 31.9023 27.7461 31.3477 28.4258 31.3477C29.1055 31.3477 29.6602 31.9023 29.6602 32.582C29.6602 32.9094 29.5301 33.2234 29.2986 33.4549C29.0671 33.6864 28.7532 33.8164 28.4258 33.8164V33.8164Z" fill="black" />
</svg>