<svg width="40" height="40" viewBox="0 0 40 40" fill="none" xmlns="http://www.w3.org/2000/svg">
<path d="M22.0234 20L32.2773 7.77734C32.4492 7.57422 32.3047 7.26562 32.0391 7.26562H28.9219C28.7383 7.26562 28.5625 7.34766 28.4414 7.48828L19.9844 17.5703L11.5273 7.48828C11.4102 7.34766 11.2344 7.26562 11.0469 7.26562H7.92969C7.66406 7.26562 7.51953 7.57422 7.69141 7.77734L17.9453 20L7.69141 32.2227C7.6529 32.2679 7.6282 32.3233 7.62024 32.3822C7.61227 32.4411 7.62137 32.501 7.64646 32.5549C7.67155 32.6088 7.71157 32.6543 7.76177 32.6862C7.81198 32.718 7.87026 32.7347 7.92969 32.7344H11.0469C11.2305 32.7344 11.4063 32.6523 11.5273 32.5117L19.9844 22.4297L28.4414 32.5117C28.5586 32.6523 28.7344 32.7344 28.9219 32.7344H32.0391C32.3047 32.7344 32.4492 32.4258 32.2773 32.2227L22.0234 20Z" fill="black"/>
</svg>
