<svg width="40" height="40" viewBox="0 0 40 40" fill="none" xmlns="http://www.w3.org/2000/svg">
<path d="M11.6667 15H3.33333V11.6667H11.6667V15ZM11.6667 20H3.33333V23.3333H11.6667V20ZM34.3167 31.6667L27.9333 25.2833C26.6 26.15 25.0333 26.6667 23.3333 26.6667C18.7333 26.6667 15 22.9333 15 18.3333C15 13.7333 18.7333 10 23.3333 10C27.9333 10 31.6667 13.7333 31.6667 18.3333C31.6667 20.0333 31.15 21.6 30.2833 22.9167L36.6667 29.3167L34.3167 31.6667ZM28.3333 18.3333C28.3333 15.5833 26.0833 13.3333 23.3333 13.3333C20.5833 13.3333 18.3333 15.5833 18.3333 18.3333C18.3333 21.0833 20.5833 23.3333 23.3333 23.3333C26.0833 23.3333 28.3333 21.0833 28.3333 18.3333ZM3.33333 31.6667H20V28.3333H3.33333V31.6667Z" stroke="current"/>
</svg>
