<svg width="40" height="40" viewBox="0 0 40 40" fill="none" xmlns="http://www.w3.org/2000/svg">
<path d="M35.8838 24.1162L32.5 20.7325V16.25C32.4961 13.1523 31.3438 10.1661 29.2658 7.86873C27.1878 5.57139 24.3318 4.12617 21.25 3.8125V1.25H18.75V3.8125C15.6682 4.12617 12.8122 5.57139 10.7342 7.86873C8.65622 10.1661 7.50388 13.1523 7.5 16.25V20.7325L4.11625 24.1162C3.88181 24.3506 3.75007 24.6685 3.75 25V28.75C3.75 29.0815 3.8817 29.3995 4.11612 29.6339C4.35054 29.8683 4.66848 30 5 30H13.75V30.9712C13.7228 32.557 14.2818 34.0971 15.3197 35.2963C16.3577 36.4955 17.8017 37.2695 19.375 37.47C20.244 37.5562 21.1214 37.4595 21.9507 37.1862C22.7801 36.913 23.5431 36.4691 24.1907 35.8833C24.8382 35.2974 25.356 34.5825 25.7106 33.7846C26.0653 32.9866 26.249 32.1232 26.25 31.25V30H35C35.3315 30 35.6495 29.8683 35.8839 29.6339C36.1183 29.3995 36.25 29.0815 36.25 28.75V25C36.2499 24.6685 36.1182 24.3506 35.8838 24.1162ZM23.75 31.25C23.75 32.2446 23.3549 33.1984 22.6517 33.9016C21.9484 34.6049 20.9946 35 20 35C19.0054 35 18.0516 34.6049 17.3483 33.9016C16.6451 33.1984 16.25 32.2446 16.25 31.25V30H23.75V31.25ZM33.75 27.5H6.25V25.5175L9.63375 22.1337C9.86819 21.8994 9.99993 21.5815 10 21.25V16.25C10 13.5978 11.0536 11.0543 12.9289 9.17893C14.8043 7.30357 17.3478 6.25 20 6.25C22.6522 6.25 25.1957 7.30357 27.0711 9.17893C28.9464 11.0543 30 13.5978 30 16.25V21.25C30.0001 21.5815 30.1318 21.8994 30.3662 22.1337L33.75 25.5175V27.5Z" stroke="current"/>
</svg>
