<svg width="40" height="40" viewBox="0 0 40 40" fill="none" xmlns="http://www.w3.org/2000/svg">
<path d="M6.25 17.5C5.91848 17.5 5.60054 17.3683 5.36612 17.1339C5.1317 16.8995 5 16.5815 5 16.25V6.2525C5 5.92098 5.1317 5.60304 5.36612 5.36862C5.60054 5.1342 5.91848 5.0025 6.25 5.0025H16.25C16.5815 5.0025 16.8995 5.1342 17.1339 5.36862C17.3683 5.60304 17.5 5.92098 17.5 6.2525V16.25C17.5 16.5815 17.3683 16.8995 17.1339 17.1339C16.8995 17.3683 16.5815 17.5 16.25 17.5H6.25ZM23.75 17.5C23.4185 17.5 23.1005 17.3683 22.8661 17.1339C22.6317 16.8995 22.5 16.5815 22.5 16.25V6.2525C22.5 5.92098 22.6317 5.60304 22.8661 5.36862C23.1005 5.1342 23.4185 5.0025 23.75 5.0025H33.7475C34.079 5.0025 34.397 5.1342 34.6314 5.36862C34.8658 5.60304 34.9975 5.92098 34.9975 6.2525V16.25C34.9975 16.5815 34.8658 16.8995 34.6314 17.1339C34.397 17.3683 34.079 17.5 33.7475 17.5H23.75ZM6.25 35C5.91848 35 5.60054 34.8683 5.36612 34.6339C5.1317 34.3995 5 34.0815 5 33.75V23.75C5 23.4185 5.1317 23.1005 5.36612 22.8661C5.60054 22.6317 5.91848 22.5 6.25 22.5H16.25C16.5815 22.5 16.8995 22.6317 17.1339 22.8661C17.3683 23.1005 17.5 23.4185 17.5 23.75V33.75C17.5 34.0815 17.3683 34.3995 17.1339 34.6339C16.8995 34.8683 16.5815 35 16.25 35H6.25ZM23.75 35C23.4185 35 23.1005 34.8683 22.8661 34.6339C22.6317 34.3995 22.5 34.0815 22.5 33.75V23.75C22.5 23.4185 22.6317 23.1005 22.8661 22.8661C23.1005 22.6317 23.4185 22.5 23.75 22.5H33.7475C34.079 22.5 34.397 22.6317 34.6314 22.8661C34.8658 23.1005 34.9975 23.4185 34.9975 23.75V33.75C34.9975 34.0815 34.8658 34.3995 34.6314 34.6339C34.397 34.8683 34.079 35 33.7475 35H23.75Z" fill="black"/>
</svg>
